<svg id="Layer_1" data-name="Layer 1" xmlns="http://www.w3.org/2000/svg" viewBox="0 0 13.66 12.73"><defs><style>.cls-1{fill:#fff;stroke:#fff;stroke-miterlimit:10;stroke-width:0.75px;}</style></defs><path class="cls-1" d="M4.46.56A3.44,3.44,0,0,0,1,4V8.74a3.43,3.43,0,0,0,3.43,3.42H9.2a3.43,3.43,0,0,0,3.43-3.42V4A3.44,3.44,0,0,0,9.2.56Zm0,.53H9.2A2.9,2.9,0,0,1,12.1,4V8.74a2.9,2.9,0,0,1-2.9,2.9H4.46a2.9,2.9,0,0,1-2.9-2.9V4A2.9,2.9,0,0,1,4.46,1.09ZM10,2.67a.53.53,0,0,0,0,1.06.53.53,0,0,0,0-1.06Zm-3.16.79a2.9,2.9,0,1,0,2.9,2.9A2.91,2.91,0,0,0,6.83,3.46Zm0,.53A2.38,2.38,0,1,1,4.46,6.36,2.37,2.37,0,0,1,6.83,4Z"/></svg>